<svg width="160" height="160" fill="none" xmlns="http://www.w3.org/2000/svg"><g clip-path="url(#a)" fill="#363636"><path d="M124.967 54.074c.752 1.441 1.209 3.08 1.209 4.818v21.102c0 4.616-3.092 8.527-7.246 9.9-1.325 3.987-3.778 7.854-8.051 10.432-8.676 5.231-31.124 4.837-31.198 4.837-.078 0-22.513.395-31.189-4.837-4.216-2.545-6.708-6.347-8.042-10.279-4.418-1.209-7.756-5.251-7.756-10.053V58.893c0-1.688.427-3.282 1.139-4.693C30.17 55.109 26 56.918 26 60.434v29.983c0 10.251 11.839 24.433 53.657 24.433 41.82 0 53.657-14.182 53.657-24.433V60.434c-.001-3.684-4.576-5.494-8.347-6.36Z"/><path d="M46.561 88.459h65.523c5.564 0 10.074-4.513 10.074-10.077V59.935c0-5.563-4.51-10.075-10.074-10.075H46.561c-5.564 0-10.075 4.511-10.075 10.075v18.447c0 5.564 4.511 10.077 10.075 10.077Zm63.134-28.991a1.57 1.57 0 1 1 0 3.139 1.57 1.57 0 0 1 0-3.139Zm0 4.039a1.569 1.569 0 1 1 0 3.138 1.569 1.569 0 0 1 0-3.138Zm0 4.039a1.568 1.568 0 1 1 .001 3.137 1.568 1.568 0 0 1-.001-3.137Zm0 3.827a1.57 1.57 0 1 1-.001 3.14 1.57 1.57 0 0 1 .001-3.14Zm0 4.039a1.568 1.568 0 1 1 .001 3.137 1.568 1.568 0 0 1-.001-3.137Zm-4.039-15.944c.867 0 1.568.703 1.568 1.57a1.568 1.568 0 1 1-3.136 0c0-.868.703-1.57 1.568-1.57Zm0 15.944a1.568 1.568 0 1 1 0 3.135 1.568 1.568 0 0 1 0-3.135Zm-4.037-15.944a1.57 1.57 0 1 1-.003 3.14 1.57 1.57 0 0 1 .003-3.14Zm0 4.039a1.57 1.57 0 1 1-.003 3.139 1.57 1.57 0 0 1 .003-3.139Zm0 4.039a1.569 1.569 0 1 1-.002 3.138 1.569 1.569 0 0 1 .002-3.138Zm0 3.827a1.568 1.568 0 1 1 0 3.138 1.568 1.568 0 0 1 0-3.138Zm0 4.039a1.569 1.569 0 1 1-.002 3.138 1.569 1.569 0 0 1 .002-3.138Zm-7.654-15.944c.867 0 1.568.703 1.568 1.57a1.568 1.568 0 1 1-3.136 0 1.568 1.568 0 0 1 1.568-1.57Zm0 8.078a1.568 1.568 0 1 1 0 3.14 1.568 1.568 0 0 1 0-3.14Zm0 3.881a1.569 1.569 0 1 1-.002 3.136 1.569 1.569 0 0 1 .002-3.136Zm0 3.985a1.568 1.568 0 1 1 0 3.135 1.568 1.568 0 0 1 0-3.135Zm-4.039-15.944a1.57 1.57 0 1 1 0 3.14 1.57 1.57 0 0 1 0-3.14Zm0 8.078a1.57 1.57 0 1 1 .001 3.139 1.57 1.57 0 0 1-.001-3.139Zm0 7.866a1.57 1.57 0 1 1 .001 3.139 1.57 1.57 0 0 1-.001-3.139Zm-4.038-15.944a1.57 1.57 0 0 1 0 3.139 1.568 1.568 0 0 1-1.568-1.569 1.567 1.567 0 0 1 1.568-1.57Zm0 4.039a1.57 1.57 0 1 1-.001 3.135 1.57 1.57 0 0 1 .001-3.135Zm0 4.039a1.57 1.57 0 1 1-.001 3.14 1.57 1.57 0 0 1 .001-3.14Zm0 7.866a1.57 1.57 0 0 1 0 3.137 1.569 1.569 0 0 1 0-3.137Zm-8.29-15.944a1.57 1.57 0 1 1 0 3.139 1.57 1.57 0 0 1 0-3.139Zm0 4.039a1.569 1.569 0 1 1 0 3.138 1.569 1.569 0 0 1 0-3.138Zm0 4.039a1.568 1.568 0 1 1 .001 3.137 1.568 1.568 0 0 1-.001-3.137Zm0 3.881a1.568 1.568 0 1 1 0 3.137 1.569 1.569 0 0 1 0-3.137Zm0 3.985a1.568 1.568 0 1 1 .001 3.137 1.568 1.568 0 0 1-.001-3.137Zm-4.039-11.905a1.568 1.568 0 1 1 0 3.136 1.568 1.568 0 0 1 0-3.136Zm-8.502-.212a1.57 1.57 0 1 1-.001 3.135 1.57 1.57 0 0 1 .001-3.135Zm0 4.038a1.57 1.57 0 1 1-.003 3.141 1.57 1.57 0 0 1 .003-3.141Zm-4.039-8.078a1.57 1.57 0 1 1-.003 3.14 1.57 1.57 0 0 1 .003-3.14Zm0 4.04a1.57 1.57 0 1 1-.003 3.139 1.57 1.57 0 0 1 .003-3.139Zm0 4.038a1.57 1.57 0 1 1-.003 3.14 1.57 1.57 0 0 1 .003-3.14Zm0 4.04a1.569 1.569 0 1 1-.001 3.137 1.569 1.569 0 0 1 .001-3.137Zm-4.254-8.078a1.569 1.569 0 1 1 0 3.138 1.569 1.569 0 0 1 0-3.138Zm0 4.038a1.57 1.57 0 1 1 0 3.139 1.57 1.57 0 0 1 0-3.139Zm0 4.04a1.57 1.57 0 1 1-.001 3.14 1.57 1.57 0 0 1 .001-3.14Zm0 4.039a1.568 1.568 0 1 1 .001 3.137 1.568 1.568 0 0 1-.001-3.137ZM52.3 59.255a1.57 1.57 0 1 1 .002 3.136 1.57 1.57 0 0 1-.002-3.136Zm0 4.04a1.57 1.57 0 0 1 1.571 1.568 1.57 1.57 0 0 1-3.14 0 1.57 1.57 0 0 1 1.569-1.568Zm0 4.038a1.571 1.571 0 1 1 0 3.14 1.571 1.571 0 0 1 0-3.14Zm0 4.04a1.57 1.57 0 1 1 .003 3.135 1.57 1.57 0 0 1-.003-3.135Zm-4.037-8.078a1.57 1.57 0 1 1-.001 3.135 1.57 1.57 0 0 1 .001-3.135Zm0 4.038a1.57 1.57 0 0 1 0 3.14 1.57 1.57 0 0 1 0-3.14Z"/></g><defs><clipPath id="a"><path fill="#fff" transform="translate(26 50)" d="M0 0h107v65H0z"/></clipPath></defs></svg>