<svg width="160" height="160" fill="none" xmlns="http://www.w3.org/2000/svg"><g clip-path="url(#a)" fill="#363636"><path d="M102.35 39.49c0-.74-.58-1.49-1.31-1.49H58.05c-.73 0-1.38.75-1.38 1.49v3.52h45.68V39.5ZM103.2 119.8h-9.6v-10.37h-6.95v2.5H67.77a3.49 3.49 0 0 0-3.18-2.15H52.56a3.59 3.59 0 0 0-3.56 3.53v3.02a3.55 3.55 0 0 0 3.56 3.48h12.03c1.52 0 2.8-.9 3.27-2.33h18.79v2.33h-9.52c-.53 0-1.01.44-1.01.97v3.17c0 .54.48 1.05 1.01 1.05h26.07c.53 0 .93-.51.93-1.05v-3.17c0-.53-.4-.97-.93-.97ZM109.67 50.39a7.04 7.04 0 0 0-6.78-5.05H56.15A7.1 7.1 0 0 0 49 52.36v46.9a7.18 7.18 0 0 0 7.15 7.12h46.74c3.9 0 7.13-3.2 7.13-7.12V88.92a23.3 23.3 0 0 0-.36-38.53Zm-48.43 49.76a5.91 5.91 0 1 1 .02-11.82 5.91 5.91 0 0 1-.02 11.82Zm5.96-32.6c0 .78-.64 1.42-1.42 1.42h-8.94c-.78 0-1.42-.64-1.42-1.42V53.39c0-.79.64-1.43 1.42-1.43h8.94c.78 0 1.42.64 1.42 1.43v14.16Zm29.56 22.3A20.1 20.1 0 0 1 76.7 69.75 20.1 20.1 0 0 1 96.77 49.6a20.1 20.1 0 0 1 20.06 20.13 20.1 20.1 0 0 1-20.06 20.12Z"/><path d="M96.76 81.96a12.2 12.2 0 0 0 12.19-12.22A12.2 12.2 0 0 0 96.76 57.5a12.2 12.2 0 0 0-12.19 12.23 12.2 12.2 0 0 0 12.2 12.22ZM80.56 71.17a1.44 1.44 0 1 0 0-2.87 1.44 1.44 0 0 0 0 2.87ZM112.96 71.17a1.43 1.43 0 1 0 0-2.87 1.43 1.43 0 0 0 0 2.87ZM88.1 57.43a1.44 1.44 0 1 0 0-2.87 1.44 1.44 0 0 0 0 2.87ZM105.42 84.91a1.43 1.43 0 1 0-.01-2.86 1.43 1.43 0 0 0 0 2.86ZM104.7 57a1.43 1.43 0 1 0 0-2.87 1.43 1.43 0 0 0 0 2.87ZM88.83 85.34a1.44 1.44 0 1 0 0-2.87 1.44 1.44 0 0 0 0 2.87Z"/></g><defs><clipPath id="a"><path fill="#fff" transform="translate(49 38)" d="M0 0h71v87H0z"/></clipPath></defs></svg>